<?xml version="1.0" encoding="utf-8"?>
<!-- Generator: Adobe Illustrator 27.5.0, SVG Export Plug-In . SVG Version: 6.00 Build 0)  -->
<svg version="1.1" id="Capa_1" xmlns="http://www.w3.org/2000/svg" xmlns:xlink="http://www.w3.org/1999/xlink" x="0px" y="0px"
	 viewBox="0 0 2122 2122" style="enable-background:new 0 0 2122 2122;" xml:space="preserve">
<path style="fill:#A879B4;" d="M2005.839,1010.035c-1.642-30.363-4.616-60.419-9.026-89.958
	c-3.181-21.335-7.079-42.465-11.695-63.288c-6.563-30.056-14.565-59.391-24-88.214c-10.156-31.698-22.056-62.674-35.493-92.73
	c-8.923-20.102-18.565-39.902-28.926-59.186c-18.463-34.874-39.184-68.414-61.749-100.521h-0.102
	c-13.644-19.593-28.209-38.568-43.391-57.033c-20.718-25.13-42.67-49.234-65.851-72.007c-23.9-23.693-49.135-46.056-75.495-67.084
	c-30.568-24.309-62.675-46.876-96.214-67.288c-67.495-41.337-140.528-74.365-217.767-97.753
	c-38.874-11.898-78.879-21.335-119.705-28.002c-50.672-8.411-102.676-12.823-155.707-12.823c-41.851,0-82.984,2.668-123.398,8.002
	C737.813,148.1,558,236.212,417.577,366.277l-0.102,0.102c-14.258,13.128-28.209,26.874-41.647,40.925
	c-20.925,21.951-40.823,44.928-59.698,68.828c-16.823,21.44-32.823,43.698-47.8,66.675c-22.462,34.26-42.774,70.056-60.723,107.293
	c-18.258,37.852-34.055,77.135-47.186,117.651c-14.565,44.521-25.846,90.47-33.539,137.656v0.102
	c-4.31,25.953-7.591,52.209-9.644,78.776c-2.051,25.232-3.077,50.674-3.077,76.419c0,7.284,0.102,14.568,0.307,21.846
	c0.412,22.875,1.744,45.442,4.002,67.805c2.256,24.926,5.537,49.544,9.744,73.749c5.948,33.953,13.641,67.293,23.079,99.911
	c5.333,18.563,11.284,36.823,17.744,54.874c10.36,29.028,22.056,57.442,35.183,85.14c7.9,16.818,16.31,33.335,25.235,49.539
	c10.974,20.312,22.77,40.209,35.386,59.595c23.286,36.107,49.033,70.674,76.933,103.191c11.488,13.437,23.386,26.567,35.695,39.391
	l0.102,0.102c21.849,22.67,44.723,44.311,68.726,64.725c31.286,26.874,64.314,51.595,98.983,73.954
	c39.184,25.646,80.419,48.312,123.398,67.805c46.363,21.232,94.779,38.772,144.937,52.209h0.102
	c78.674,21.335,161.556,32.619,247,32.619c153.965,0,299.311-36.721,427.837-101.958l0.31-0.102
	c65.851-33.545,127.395-74.368,183.198-121.861c39.286-33.232,75.7-69.544,109.139-108.73v-0.103
	c36.312-42.465,68.828-88.111,97.137-136.628v-0.102c18.156-31.079,34.67-63.186,49.235-96.521
	c15.695-35.595,29.235-72.316,40.314-110.167c13.128-43.493,22.974-88.419,29.539-134.372c4.616-31.8,7.591-64.112,8.925-96.833
	c0.512-12.921,0.821-25.949,0.821-39.079C2007.174,1043.676,2006.762,1026.853,2005.839,1010.035z"/>
<path style="fill:#AE82B9;" d="M396.188,442.668c-17.666,19.915-34.426,40.502-50.102,61.978
	c-13.976,19.281-27.184,39.252-39.605,59.802c-18.631,30.641-35.62,62.518-51.298,95.454c-3.325,6.982-6.592,14.012-9.8,21.087
	c-12.148,26.781-23.262,54.094-33.14,81.948c-13.864,38.719-25.296,78.431-33.712,119.22l-0.005,0.088
	c-4.714,22.46-8.511,45.199-11.318,68.248c-2.67,21.919-4.368,44.073-5.342,66.572c-0.283,6.548-0.534,13.101-0.697,19.664
	c-0.514,20.58-0.224,40.979,0.952,61.261c1.311,22.597,3.545,45.003,7.084,67.059c3.164,19.503,7.227,38.802,12.287,57.837
	c2.923,11.021,6.071,21.939,9.427,32.76c5.165,16.755,10.872,33.223,16.992,49.515c9.817,26.212,20.704,51.912,32.54,77.184
	c7.126,15.347,14.636,30.475,22.343,45.491c9.583,18.67,19.613,37.013,30.27,54.932c19.856,33.384,41.508,65.5,65.856,95.771
	c9.998,12.444,20.468,24.614,31.547,36.594c20.207,22.065,41.897,41.223,64.616,59.021c29.727,23.288,61.157,44.068,93.23,65.758
	c36.482,24.677,72.389,48.015,110.913,67.805c26.263,13.55,53.685,25.515,83.13,35.323c16.701,5.564,33.629,10.392,50.738,14.495
	h0.097c73.747,17.822,150.628,20.628,226.793,14.743c112.686-8.716,217.685-37.008,315.838-83.181
	c16.891-7.946,33.596-16.278,50.07-24.998l0.268-0.102c57.495-30.519,112.304-65.656,162.506-106.187
	c35.274-28.341,68.243-59.167,98.574-92.735l0.007-0.088c33.578-36.74,64.628-76.126,91.898-118.304l0.007-0.087
	c17.479-27.016,33.411-55.084,47.498-84.38c9.549-19.859,18.295-40.19,25.961-61.082c4.446-12.151,8.629-24.487,12.629-36.96
	c12.429-38.757,22.533-78.942,29.423-120.058c4.877-28.58,8.197-57.608,9.756-86.884c0.621-11.659,0.996-23.386,1.028-35.176
	c0.061-16.034-0.2-31.751-0.826-47.366c-1.082-28.619-3.042-56.546-5.664-83.927c-1.89-19.766-4.024-39.308-6.531-58.63
	c-2.312-17.827-4.96-35.43-7.844-52.916c-1.547-9.379-3.437-18.689-5.398-27.995c-6.182-29.359-14.283-58.382-24.77-86.655
	c-6.958-18.977-14.948-37.729-23.998-56.044c-13.133-26.758-28.358-52.755-45.564-77.861c-3.752-5.486-7.574-10.923-11.464-16.317
	l-0.092-0.009c-12.972-18.125-26.891-35.623-41.481-52.461c-19.96-22.959-41.408-44.436-63.792-64.399
	c-22.511-20.08-45.941-38.945-70.579-55.89c-4.241-2.924-8.504-5.813-12.821-8.617c-24.852-16.154-50.253-31.403-76.282-45.778
	c-44.241-24.494-90.309-46.458-139.539-65.217c-19.42-7.403-38.935-14.102-58.872-19.642c-9.561-2.687-19.22-5.109-29.01-7.216
	c-26.068-5.695-52.329-9.152-79.25-12.779c-2.553-0.349-5.108-0.702-7.673-1.058c-43.649-6.056-87.659-11.739-133.132-11.405
	c-38.682,0.329-76.251,1.225-113.324,4.965c-23.079,2.3-45.934,5.659-68.68,10.568c-62.888,13.554-122.767,35.895-178.978,63.622
	C577.566,289.48,498.685,340.44,433.15,403.901l-0.095,0.1C420.261,416.335,407.981,429.373,396.188,442.668z"/>
<path style="fill:#B58BBE;" d="M399.825,461.889c-14.972,18.426-29.099,37.257-42.071,56.938
	c-11.573,17.69-22.407,35.956-32.667,54.675c-15.389,27.922-29.588,56.818-43.466,86.431c-2.938,6.271-5.861,12.57-8.775,18.894
	c-11.03,23.961-21.518,48.121-31.159,72.613c-13.542,34.09-25.423,68.764-34.765,104.395l-0.01,0.078
	c-5.23,19.649-9.683,39.551-13.245,59.785c-3.391,19.269-5.776,38.811-7.688,58.728c-0.575,6.007-1.201,12.024-1.691,18.056
	c-1.54,18.889-2.263,37.719-1.993,56.497c0.297,20.935,1.695,41.764,4.68,62.304c2.66,18.095,6.443,36.01,11.537,53.666
	c2.933,10.193,6.08,20.263,9.418,30.241c5.135,15.434,10.757,30.587,16.704,45.598c9.547,24.151,19.934,47.888,30.823,71.464
	c6.561,14.309,13.325,28.516,20.115,42.738c8.402,17.603,17.011,34.899,26.082,51.829c16.96,31.664,35.267,62.187,56.794,91.059
	c8.814,11.8,18.163,23.357,28.236,34.733c19.142,22.06,40.17,39.4,62.311,55.015c28.889,20.541,59.615,38.012,90.073,59.508
	c34.724,24.502,66.47,48.984,101.666,69.583c23.898,13.988,49.313,26.261,78.049,35.751c16,5.296,32.209,9.622,48.555,13.043h0.093
	c70.881,14.86,143.705,9.754,213.068-2.28c97.198-16.867,185.653-47.985,271.224-93.237c14.726-7.79,29.406-15.722,43.983-23.839
	l0.236-0.098c50.862-28.384,100.552-58.908,146.618-93.715c32.294-24.321,62.772-50.616,90.872-79.599l0.014-0.073
	c31.8-32.131,62.236-66.455,89.206-103.566l0.017-0.078c17.277-23.766,33.12-48.609,47.052-74.762
	c9.489-17.817,18.124-36.166,25.552-55.187c4.285-11.016,8.402-22.241,12.375-33.627c12.241-35.108,22.692-71.785,30.075-109.266
	c5.262-26.197,9.004-52.784,10.823-79.478c0.743-10.733,1.196-21.506,1.257-32.297c0.122-15.483,0-30.543-0.351-45.393
	c-0.568-27.669-1.591-54.255-2.538-80.258c-0.687-18.753-1.153-37.247-1.676-55.629c-0.472-16.628-1.042-33.121-1.466-49.642
	c-0.227-8.775-0.909-17.525-1.647-26.28c-2.355-27.917-7.15-55.712-14.981-83.02c-5.267-18.363-11.815-36.594-19.827-54.446
	c-11.545-25.71-25.8-50.772-42.76-74.971c-3.645-5.215-7.367-10.385-11.164-15.501l-0.083-0.02
	c-12.663-17.172-26.319-33.69-40.716-49.386c-19.741-21.452-41.166-41.003-63.456-58.684c-21.649-17.172-44.041-33.04-67.646-46.455
	c-4.046-2.317-8.105-4.599-12.224-6.758c-24.034-12.587-48.024-24.67-72.292-36.507c-41.464-20.193-83.814-39.462-130.209-56.938
	c-18.132-6.838-36.093-12.994-54.563-17.591c-8.843-2.229-17.807-4.077-26.952-5.532c-24.151-3.842-48.121-4.667-73.006-7.193
	c-2.363-0.241-4.733-0.502-7.113-0.785c-40.562-4.785-80.696-12.324-122.871-11.651c-36.614,0.655-71.698-0.149-106.491,2.134
	c-21.605,1.405-43.074,3.966-64.667,8.694c-58.974,12.889-114.623,36.112-166.477,63.727
	c-75.401,39.9-151.622,86.971-211.531,147.987l-0.088,0.098C421.299,436.291,410.324,448.966,399.825,461.889z"/>
<path style="fill:#BB94C4;" d="M403.462,481.109c-12.324,16.887-23.774,34.015-34.042,51.895
	c-9.169,16.098-17.627,32.658-25.727,49.554c-12.146,25.203-23.557,51.113-35.635,77.408c-2.55,5.549-5.13,11.118-7.749,16.701
	c-9.912,21.13-19.773,42.144-29.177,63.269c-13.225,29.466-25.552,59.098-35.82,89.578l-0.015,0.063
	c-5.746,16.838-10.858,33.909-15.169,51.323c-4.117,16.618-7.243,33.559-10.036,50.884c-0.882,5.476-1.866,10.942-2.687,16.453
	c-2.563,17.194-4.297,34.456-4.938,51.732c-0.711,19.269-0.153,38.524,2.275,57.549c2.161,16.677,5.661,33.218,10.792,49.495
	c2.938,9.359,6.088,18.587,9.405,27.717c5.106,14.114,10.643,27.951,16.417,41.681c9.276,22.095,19.164,43.863,29.106,65.749
	c5.992,13.272,12,26.563,17.885,39.98c7.199,16.541,14.404,32.789,21.893,48.73c14.061,29.939,29.028,58.87,47.737,86.343
	c7.625,11.157,15.858,22.1,24.923,32.872c18.075,22.051,38.48,37.529,60.009,51.015c28.097,17.72,58.068,31.951,86.913,53.247
	c32.964,24.336,60.553,49.953,92.416,71.366c21.537,14.426,44.945,27.001,72.967,36.185c15.301,5.019,30.794,8.848,46.375,11.586
	h0.088c68.019,11.902,136.601-0.672,199.344-19.303c81.544-24.214,153.622-58.962,226.608-103.293
	c12.563-7.634,25.218-15.167,37.895-22.679l0.205-0.097c44.234-26.246,88.803-52.151,130.733-81.242
	c29.313-20.297,57.303-42.065,83.171-66.46l0.022-0.063c30.017-27.517,59.842-56.779,86.513-88.823l0.024-0.063
	c17.077-20.516,32.838-42.134,46.604-65.149c9.435-15.771,17.957-32.141,25.145-49.295c4.121-9.876,8.185-19.985,12.119-30.29
	c12.083-31.449,22.782-64.643,30.73-98.475c5.596-23.825,9.81-47.961,11.893-72.073c0.865-9.807,1.391-19.62,1.484-29.418
	c0.18-14.933,0.202-29.339,0.122-43.42c-0.051-26.719-0.139-51.965,0.587-76.589c0.516-17.739,1.678-35.161,3.182-52.633
	c1.325-15.415,2.845-30.796,4.911-46.362c1.082-8.166,1.634-16.366,2.104-24.565c1.515-26.484,0.041-53.071-5.194-79.381
	c-3.535-17.768-8.682-35.469-15.656-52.857c-9.956-24.658-23.24-48.784-39.958-72.08c-3.535-4.943-7.157-9.841-10.865-14.682
	l-0.073-0.029c-12.351-16.219-25.742-31.761-39.949-46.314c-19.525-19.939-40.874-37.61-63.123-52.964
	c-20.731-14.312-42.161-27.086-64.711-37.025c-3.854-1.698-7.71-3.377-11.63-4.894c-23.244-8.999-45.793-17.939-68.297-27.24
	c-38.687-15.885-77.325-32.463-120.881-48.655c-16.843-6.27-33.247-11.885-50.255-15.542c-8.122-1.771-16.387-3.064-24.892-3.849
	c-22.219-2.041-43.914-0.183-66.759-1.603c-2.176-0.136-4.358-0.307-6.556-0.514c-37.473-3.515-73.734-12.909-112.611-11.9
	c-34.545,0.984-67.142-1.52-99.658-0.695c-20.134,0.514-40.216,2.273-60.652,6.821c-55.062,12.227-106.479,36.328-153.98,63.834
	c-68.484,39.344-142.041,82.528-196.325,141.098l-0.083,0.095C422.339,456.247,412.644,468.527,403.462,481.109z"/>
<path style="fill:#C29DC9;" d="M407.099,500.329c-9.74,15.286-18.446,30.77-26.01,46.852c-6.765,14.505-12.85,29.359-18.792,44.429
	c-8.901,22.484-17.522,45.413-27.8,68.389c-2.163,4.833-4.399,9.671-6.723,14.504c-8.794,18.305-18.032,36.17-27.196,53.934
	c-12.904,24.838-25.678,49.432-36.872,74.752l-0.017,0.053c-6.265,14.027-12.037,28.263-17.098,42.86
	c-4.845,13.963-8.775,28.307-12.382,43.045c-1.206,4.935-2.538,9.861-3.683,14.84c-3.601,15.493-6.334,31.196-7.881,46.967
	c-1.725,17.608-2.003,35.283-0.129,52.794c1.659,15.269,4.879,30.426,10.044,45.325c2.945,8.531,6.095,16.916,9.393,25.203
	c5.077,12.789,10.529,25.315,16.129,37.759c9.004,20.034,18.392,39.839,27.389,60.029c5.425,12.233,10.704,24.594,15.656,37.227
	c6.034,15.464,11.796,30.674,17.703,45.627c11.152,28.224,22.791,55.552,38.679,81.637c6.436,10.514,13.554,20.838,21.613,31.006
	c17.006,22.047,36.789,35.654,57.702,47.011c27.31,14.904,56.489,25.939,83.756,46.996c31.166,24.219,54.633,50.923,83.169,73.144
	c19.171,14.865,40.575,27.742,67.885,36.614c14.599,4.751,29.374,8.083,44.192,10.134h0.083
	c65.155,8.945,129.529-10.397,185.619-36.327c65.987-30.509,121.59-69.938,181.992-113.349c10.4-7.479,21.028-14.611,31.807-21.52
	l0.173-0.092c37.603-24.112,77.052-45.399,114.847-68.77c26.333-16.278,51.832-33.515,75.471-53.325l0.029-0.049
	c28.236-22.904,57.449-47.108,83.821-74.085l0.032-0.053c16.874-17.267,32.562-35.654,46.158-55.532
	c9.384-13.72,17.786-28.117,24.735-43.4c3.959-8.745,7.944-17.744,11.864-26.957c11.849-27.81,23.011-57.466,31.386-87.683
	c6.029-21.427,10.619-43.142,12.96-64.667c0.987-8.882,1.591-17.739,1.713-26.534c0.241-14.392,0.402-28.136,0.595-41.452
	c0.465-25.768,1.313-49.676,3.715-72.915c1.72-16.731,4.453-33.086,8.034-49.637c3.077-14.202,6.702-28.477,11.291-43.094
	c2.37-7.552,4.197-15.201,5.856-22.845c5.443-25.057,7.245-50.431,4.597-75.746c-1.798-17.174-5.552-34.339-11.488-51.264
	c-8.368-23.605-20.682-46.796-37.155-69.186c-3.427-4.675-6.952-9.301-10.565-13.868l-0.066-0.036
	c-12.039-15.267-25.167-29.829-39.181-43.24c-19.308-18.429-40.531-34.285-62.787-47.249
	c-19.763-11.513-40.256-21.176-61.778-27.591c-3.656-1.089-7.323-2.149-11.035-3.033c-22.487-5.357-43.562-11.208-64.304-17.971
	c-35.909-11.583-70.831-25.466-111.549-40.375c-15.556-5.705-30.404-10.777-45.948-13.493c-7.403-1.311-14.967-2.061-22.833-2.163
	c-20.282-0.263-39.708,4.302-60.516,3.983c-1.985-0.031-3.983-0.107-5.995-0.241c-34.387-2.246-66.774-13.491-102.353-12.149
	c-32.474,1.313-62.587-2.894-92.823-3.522c-18.663-0.38-37.357,0.58-56.641,4.948c-51.147,11.561-98.335,36.543-141.478,63.939
	c-61.568,38.789-132.464,78.087-181.125,134.209l-0.078,0.095C423.379,476.206,414.924,488.05,407.099,500.329z"/>
<path style="fill:#C8A6CF;" d="M410.736,519.548c-7.247,13.637-13.118,27.527-17.98,41.812
	c-4.361,12.911-8.071,26.066-11.851,39.303c-5.659,19.766-11.491,39.712-19.969,59.366c-1.776,4.122-3.668,8.229-5.698,12.316
	c-7.676,15.474-16.287,30.193-25.215,44.594c-12.584,20.204-25.805,39.766-37.922,59.927l-0.025,0.044
	c-6.782,11.216-13.235,22.602-19.026,34.392c-5.593,11.303-10.395,23.035-14.726,35.206c-1.564,4.395-3.201,8.78-4.682,13.233
	c-4.599,13.803-8.39,27.926-10.824,42.206c-2.76,15.932-3.851,32.044-2.533,48.039c1.157,13.852,4.095,27.63,9.293,41.154
	c2.955,7.698,6.105,15.24,9.384,22.68c5.047,11.469,10.414,22.68,15.839,33.841c8.736,17.978,17.625,35.815,25.671,54.309
	c4.862,11.196,9.413,22.626,13.43,34.47c4.872,14.387,9.157,28.58,13.513,42.533c8.192,26.519,16.553,52.233,29.622,76.92
	c5.247,9.871,11.247,19.581,18.299,29.145c15.939,22.036,35.101,33.783,55.398,43.006c26.521,12.093,54.954,19.869,80.596,40.741
	c29.42,24.029,48.716,51.892,73.924,74.923c16.809,15.308,36.205,28.487,62.804,37.047c13.897,4.483,27.953,7.313,42.009,8.682
	h0.078c62.292,5.987,123.005-19.143,171.894-53.349c51.035-35.707,89.559-80.911,137.378-123.405
	c8.233-7.318,16.838-14.056,25.717-20.36l0.144-0.093c30.972-21.968,65.3-38.641,98.959-56.297
	c23.352-12.254,46.363-24.96,67.768-40.181l0.039-0.039c26.455-18.295,55.055-37.437,81.127-59.347l0.039-0.039
	c16.677-14.017,32.331-29.145,45.712-45.919c9.361-11.649,17.615-24.092,24.328-37.505c3.796-7.61,7.703-15.503,11.61-23.625
	c11.613-24.175,23.169-50.309,32.036-76.891c6.414-19.045,11.427-38.319,14.029-57.262c1.108-7.956,1.788-15.859,1.944-23.654
	c0.3-13.841,0.599-26.928,1.067-39.474c0.982-24.823,2.765-47.396,6.84-69.252c2.923-15.717,7.164-31.025,12.889-46.635
	c4.772-13.008,10.523-26.178,17.669-39.82c3.642-6.952,6.775-14.036,9.608-21.13c9.425-23.595,14.489-47.785,14.385-72.107
	c-0.027-16.58-2.419-33.208-7.318-49.671c-6.777-22.558-18.122-44.813-34.353-66.297c-3.318-4.404-6.743-8.76-10.263-13.052
	l-0.058-0.048c-11.727-14.312-24.592-27.895-38.412-40.163c-19.091-16.918-40.141-31.062-62.455-41.532
	c-18.755-8.804-38.339-15.328-58.842-18.159c-3.457-0.489-6.936-0.909-10.438-1.174c-21.742-1.639-41.332-4.473-60.314-8.699
	c-33.13-7.279-64.336-18.467-102.219-32.095c-14.268-5.14-27.561-9.669-41.639-11.444c-6.685-0.853-13.547-1.065-20.775-0.478
	c-18.348,1.491-35.5,8.787-54.27,9.569c-1.798,0.076-3.608,0.09-5.438,0.034c-31.298-0.979-59.812-14.078-92.092-12.4
	c-30.406,1.642-58.034-4.266-85.992-6.349c-17.189-1.274-34.495-1.116-52.623,3.075c-47.235,10.896-90.192,36.757-128.979,64.043
	c-54.655,38.233-122.886,73.644-165.921,127.32l-0.073,0.092C424.417,496.162,417.126,507.531,410.736,519.548z"/>
<path style="fill:#CFAFD4;" d="M1233.587,365.994c-20.704-7.235-42.731-10.419-65.754-8.037
	c-57.909,5.993-94.28-3.897-149.21-23.247c-19.12-6.733-35.547-12.2-56.046-8.185c-18.003,3.525-34.139,15.267-52.904,15.461
	c-28.212,0.292-52.853-14.66-81.834-12.645c-45.681,3.174-83.054-18.541-127.766-7.978c-43.32,10.231-82.051,36.974-116.479,64.148
	c-57.159,45.115-139.88,81.403-169.222,153.256c-17.281,42.324-9.903,89.432-31.671,131.415
	c-25.99,50.129-74.413,83.318-100.263,133.69c-20.567,40.078-34.387,86.289-15.837,129.33
	c19.303,44.789,46.684,82.348,60.075,130.391c13.61,48.828,15.593,95.542,44.877,138.922
	c34.317,50.836,88.143,36.965,130.533,73.491c45.944,39.581,57.301,93.437,122.399,114.182
	c72.216,23.016,148.759-9.988,198.07-63.147c37.374-40.292,57.527-91.888,92.762-133.461c41.854-49.379,107.9-59.664,162.884-90.158
	c51.571-28.604,117.624-58.933,147.714-112.574c25.269-45.043,59.907-105.144,61.315-157.023
	c2.042-75.264,6.665-122.679,53.298-183.263c47.864-62.187,53.25-134.474,2.836-199.368
	C1314.661,414.247,1277.046,381.188,1233.587,365.994z"/>
<path style="fill:#AA71AD;" d="M2006.716,1031.925c-1.089,1.895-2.134,3.83-3.237,5.715
	c-55.824,95.264-124.289,166.303-185.865,252.481c-0.702,0.979-1.428,1.915-2.134,2.884
	c-46.743,64.234-102.648,110.187-160.398,157.427c-46.076,37.554-81.695,85.203-128.993,120.745
	c-38.877,29.618-96.794,64.604-136.667,48.068c-7.964-3.245-16.378-8.448-22.377-15.147c-9.223-10.295-12.702-24.146,0.317-40.097
	c25.617-32.01,61.732-6.047,31.9,11.693c2.4,1.018,5.359,1.55,8.626,1.622c14.017,0.307,33.734-7.878,39.588-22.587
	c1.021-2.568,1.43-5.013,1.479-7.377c0.414-19.395-29.116-31.595-43.586-34.504c-48.552-9.184-94.922,19.557-108.788,67.055
	c-7.24,24.999-7.189,46.938-0.782,66.211c5.644,16.98,16.207,31.893,31.272,44.926c59.027,52.809,194.221,3.722,251.86-73.261
	c0.748,4.643-0.524,10.621-3.06,17.237c-7.459,19.44-25.961,44.404-37.069,57.32c-49.992,59.103-118.184,79.814-185.741,88.404
	c-4.497,0.575-8.989,1.092-13.474,1.564c-70.475,6.904-98.964,20.838-146.394,59.703c-4.553,3.732-9.22,7.61-14.18,11.819
	c-73.466,61.612-173.222,97.909-273.679,111.561c-37.12,5.091-74.241,5.286-111.474,3.61c6.558,1.915,13.14,3.771,19.759,5.544
	h0.102c54.163,14.69,110.358,24.482,167.97,29.243c12.904-3.971,25.805-8.453,38.784-13.574
	c55.128-22.056,107.775-26.066,161.948-48.916c47.966-20.438,86.697-48.283,135.58-68.804
	c77.705-32.696,158.878-65.587,234.783-103.147c85.308-41.676,179.553-97.471,243.302-179.658
	c52.251-67.844,56.512-125.193,80.329-196.257c16.818-50.655,47.88-108.569,83.703-151.502
	c12.769-15.327,25.208-30.431,37.344-45.559c4.594-31.717,7.561-63.946,8.891-96.584c0.512-12.921,0.819-25.949,0.819-39.079
	C2007.171,1051.058,2006.998,1041.479,2006.716,1031.925z"/>
<path style="fill:#AA71AD;" d="M912.407,1874.118c76.049-5.963,152.911-0.755,217.994-49.856
	c37.237-27.61,77.052-88.268,86.538-136.764c2.582-13.198,2.933-25.505,0.353-35.99c-10.139-39.542-55.861-61.539-107.768-67.429
	c-51.712-5.866-109.561,4.253-144.489,28.96c-15.842,11.863-28.987,27.727-36.719,44.799c-8.65,19.089-10.514,39.703-1.452,58.017
	c8.814,17.861,41.503,37.651,61.086,26.124c-28.255,2.538-39.999-33.978-18.401-46.032c24.212-13.681,56.18,6.631,66.333,22.514
	c6.552,10.183,8.718,20.896,7.549,31.523c-3.944,35.854-46.265,70.777-89.87,81.383c-78.782,19.352-148.452-15.503-224.063-28.565
	c-27.037-4.789-49.96,0.195-74.375,2.748c-9.364,0.974-18.94,1.607-29.065,1.179c-41.322-1.788-84.114-18.728-121.39-35.517
	c-39.939-18.163-77.296-31.824-114.421-42.514c17.993,18.012,36.633,35.366,56.049,51.878
	c22.007,18.904,44.923,36.677,68.621,53.378c112.124,39.888,229.936,70.295,341.818,47.537
	C875.119,1877.708,893.74,1875.585,912.407,1874.118z"/>
<path style="fill:#AA71AD;" d="M260.237,649.588c9.147-0.365,18.125-0.789,26.85-1.164c9.164-0.39,18.046-0.711,26.604-0.838
	c0.897-0.014,1.81-0.034,2.702-0.043c7.688,0.015,15.406,0.307,23.143,0.784c8.375,0.511,16.775,1.267,25.191,2.207
	c8.324,0.935,16.662,2.036,25.011,3.274c84.343,12.453,169.626,37.276,248.988,14.446c65.53-19.337,117.576-62.553,180.223-88.111
	c45.359-18.597,93.181-33.32,137.607-55.493c48.316-24.116,100.282-37.978,145.02-72.311c34.212-26.09,66.643-58.241,96.728-94.294
	c2.609-3.126,5.225-6.241,7.798-9.427c7.276-9.006,14.385-18.263,21.359-27.698c8.511-11.52,16.784-23.328,24.811-35.384
	c8.163-12.26,16.066-24.762,23.69-37.468c7.376-12.287,14.487-24.748,21.325-37.345c4.953-9.12,9.813-18.282,14.468-27.517
	c4.808-9.223,10.183-19.652,15.322-30.838c-36.039-10.631-72.974-19.242-110.652-25.396c-10.17-1.688-20.411-3.172-30.689-4.534
	c-5.708,7.411-11.9,13.995-18.875,19.189c-33.383,24.453-68.821-8.119-103.364-3.116c-16.57,2.565-37.125,13.411-49.371,31.457
	c-6.095,8.979-10.127,19.725-10.541,32.185c-0.166,4.965,0.185,10.173,1.262,15.667c1.494,7.588,4.616,15.084,8.751,22.046
	c11.016,18.553,29.422,33.152,44.979,34.677l0.611,0.09c2.156,0.195,5.22,0.036,8.361-0.578c8.385-1.642,17.332-6.645,11.15-17.654
	c-4.931-8.736-18.161,1.362-24.697-11.089c-0.624-1.189-1.208-2.507-1.698-4.141c-4.609-15.357,8.38-25.922,22.204-31.715
	c8.826-3.698,17.985-5.466,23.143-5.247c7.627,0.548,15.449,4.48,22.161,10.673c8.777,8.102,15.61,20.112,17.486,33.751
	c0.185,1.35,0.348,2.706,0.433,4.083c0.75,12.139-3.057,22.865-9.04,31.971c-8.468,12.884-21.325,22.492-32.097,28.024
	c-2.21,1.152-4.478,2.014-6.77,2.745c-20.875,6.643-44.757-2.336-63.72,5.842c-7.218,3.062-10.061,7.098-12.429,11.698
	c-2.572,5.001-4.587,10.668-11.031,16.49c-12.09,10.772-26.051,2.365-36.143,14.497c-4.926,5.871-2.307,17.276-9.415,23.349
	c-7.459,6.327-15.296,1.323-23.739,2.517c-22.326,2.962-9.932,9.186-22.862,21.885c-12.263,11.829-28.792,0.646-42.426,8.68
	c-19.53,11.284-18.616,28.65-45.596,28.767c-24.636-0.075-51.615-19.233-74.857-7.964c-21.588,10.27-20.224,44.799-39.059,58.845
	c-16.811,12.536-48.18,11.016-68.462,12.302c-20.514,1.35-31.693,4.717-50.041,11.44c-32.831,11.815-69.159-8.141-103.071-8.18
	c-16.901-0.068-26.056,10.606-41.992,13.081c-8.321,1.257-16.831,0.604-25.437-1.111c-3.793-0.755-7.605-1.725-11.43-2.841
	c-4.36-1.271-8.736-2.714-13.118-4.268c-4.897-1.735-9.798-3.567-14.694-5.394c-5.379-2.007-10.748-3.978-16.09-5.751
	c-6.034-2-12.027-3.693-17.966-4.901c-3.439-0.7-6.865-1.279-10.256-1.574c-19.132-1.717-33.688,4.37-48.457,11.749
	c-6.553,9.277-12.987,18.66-19.201,28.195c-22.462,34.26-42.774,70.056-60.723,107.293l-0.026,0.054
	C225.473,650.723,243.158,650.265,260.237,649.588z"/>
<path style="fill:#AA71AD;" d="M199.946,1204.489c3.751,0.005,7.476-0.058,11.201-0.122c13.99-0.238,27.795-0.974,41.413-2.149
	c2.504-0.219,5.023-0.404,7.515-0.653c12.185-1.247,24.056-3.104,35.708-5.384c11.703-2.285,23.174-5.023,34.489-8.054
	c9.588-2.563,19.057-5.349,28.468-8.248c59.176-18.212,115.775-41.115,181.227-46.007c77.315-6.621,141.534,28.507,218.026,29.262
	c57.498,0.189,106.043-27.211,156.172-49.53c97.965-44.029,194.635-61.846,294.822-98.942c0.797-0.297,1.586-0.565,2.383-0.863
	c73.488-28.151,134.189-66.192,189.807-120.842c24.348-23.932,47.736-51.001,70.776-81.885
	c-20.419,17.071-41.327,37.203-65.028,49.364c-1.276,0.653-2.558,1.203-3.834,1.827c-42.96,21.028-86.47,27.99-130.056,34.319
	c-24.592,3.571-49.208,6.967-73.763,12.633c-91.026,20.595-166.004,83.303-251.28,122.124
	c-88.794,40.701-197.79,35.172-295.733,28.297c-2.114-0.141-4.229-0.277-6.339-0.404c-110.642-7.576-213.672,0.964-317.765,9.915
	c-13.707,1.179-27.437,2.363-41.203,3.522c-14.677,1.233-29.403,2.427-44.192,3.552c-11.439,0.872-22.923,1.69-34.455,2.451
	c-8.2,0.541-16.424,1.052-24.68,1.515c-7.396,0.419-14.811,0.814-22.256,1.16c-15.501,0.726-31.13,1.267-46.889,1.617
	c0.419,22.733,1.747,45.165,3.99,67.391c1.491,16.482,3.474,32.819,5.835,49.004c17.722,2.358,35.257,3.893,52.545,4.609
	C184.596,1204.29,192.299,1204.475,199.946,1204.489z"/>
<path style="fill:#AA71AD;" d="M188.732,949.319c6.224-0.424,12.456-0.828,18.697-1.213c5.213-0.322,10.434-0.634,15.656-0.926
	c5.674-0.317,11.35-0.619,17.03-0.901c10.592-0.526,21.194-0.989,31.798-1.369c87.441-3.147,175.112-1.111,259.021,11.479
	c85.792,13.589,164.009,42.036,248.639,59.313c49.043,9.851,92.994-4.774,137.98-21.622
	c98.73-37.042,183.441-107.132,281.677-145.622c29.376-11.712,58.954-18.251,88.313-24.882
	c40.945-9.252,81.464-18.709,120.396-42.616c6.288-3.863,12.538-8.073,18.738-12.75c44.226-33.671,89.987-71.303,126.165-120.876
	c2.107-2.889,4.192-5.798,6.231-8.765c21.954-32.019,36.355-67.274,47.447-104.604c6.161-20.74,11.316-42.109,16.141-63.946
	c0.524-2.39,1.021-4.757,1.523-7.125c4.224-19.97,7.763-39.232,11.717-58.18c5.496-26.328,11.849-52.065,22.056-78.268
	c-2.621-2.136-5.204-4.322-7.849-6.431c-30.568-24.309-62.675-46.876-96.214-67.288c-52.974-32.443-109.4-59.681-168.552-81.244
	c-5.717,22.314-12.183,44.226-19.196,65.588c-2.548,7.761-5.15,15.466-7.837,23.069c-2.307,6.606-4.77,13.121-7.215,19.642
	c-5.045,13.452-10.356,26.733-15.976,39.8c-4.256,9.888-8.694,19.642-13.269,29.288c-3.615,7.62-7.296,15.182-11.106,22.641
	c-5.123,10.032-10.455,19.878-15.924,29.603c-49.812,88.555-113.751,164.019-188.54,218.128
	c-123.383,89.539-273.935,101.729-416.424,112.608c-107.052,8.468-217.57,6.816-325.672,13.306
	c-13.819,0.877-27.705,1.924-41.625,3.045c-4.389,0.356-8.779,0.702-13.179,1.077c-6.821,0.584-13.651,1.184-20.494,1.812
	c-7.871,0.726-15.754,1.481-23.649,2.256c-8.407,0.828-16.83,1.686-25.262,2.563c-8.714,0.906-17.44,1.836-26.175,2.786
	c-17.393,1.895-34.825,3.864-52.284,5.866c-0.351,1.072-0.748,2.119-1.097,3.192c-14.565,44.516-25.849,90.47-33.542,137.656v0.102
	c-2.697,16.248-4.938,32.633-6.78,49.125c15.613-1.34,31.311-2.612,47.069-3.786C174.345,950.318,181.534,949.806,188.732,949.319z"
	/>
<path style="fill:#AA71AD;" d="M1640.211,1251.105c-55.442,46.835-105.271,90.007-156.192,132.403
	c-21.489,18.222-66.716,42.1-69.274,60.141c66.482,8.044,203.103-105.71,248.681-150.737c4.385-3.975,8.728-7.878,13.04-11.717
	c61.827-55.079,116.867-97.612,181.707-159.751c2.543-2.441,5.069-4.838,7.644-7.342c57.215-56.453,85.956-113.213,110.172-174.62
	c4.616-10.943,10.646-25.462,17.089-41.798c-2.39-13.729-4.967-27.396-7.961-40.896c-6.565-30.056-14.565-59.391-24.002-88.214
	c-2.042-6.383-4.207-12.711-6.392-19.03c-11.164,68.15-38.806,150.148-75.634,216.968c-4.577,8.351-9.262,16.512-14,24.575
	c-42.441,72.219-91.529,133.422-149.761,191.195C1691.823,1205.605,1666.871,1228.391,1640.211,1251.105z"/>
<path style="fill:#AA71AD;" d="M499.242,1603.62c30.872,1.632,61.24,0.76,91.361-1.208c49.956-3.259,99.227-9.525,148.961-12.351
	c135.178-7.975,255.372-43.839,372.656-103.707c48.728-25.047,89.695-61.939,135.57-92.55
	c46.178-30.816,94.161-61.281,135.885-99.254c14.628-13.296,30.182-25.681,44.421-39.347c14.131-13.589,28.572-17.973,45.042-25.14
	c18.952-8.258,38.502-17.729,56.533-29.598c22.838-14.914,51.016-38.553,64.087-65.403c-33.561,31.361-71.317,53.13-106.523,39.625
	c-25.257-9.949-29.795-35.629-24.809-63.829c3.993-22.582,14.09-46.776,24.587-65.807c1.995-3.542,4.056-7.157,6.149-10.801
	c24.501-42.704,55.525-91.61,89.1-124.672c14.419-13.998,34.19-28.692,51.997-32.877c6.241-1.462,12.244-1.661,17.686-0.054
	c25.457,7.479,16.297,50.197,5.016,79.098c-7.279,19.133-17.276,41.257-29.7,60.809c-15.805,24.877-35.542,45.583-58.64,50.626
	c-49.657,10.397-13.815-73.33,17.608-90.329c-15.087-0.814-40.339,34.153-48.763,50.406c-21.159,41.154,4.475,67.469,36.729,65.242
	c12.555-0.814,25.227-4.609,37.678-10.714c44.653-21.9,86.467-73.524,110.012-124.082c10.609-22.402,18.728-45.52,26.107-68.921
	c6.421-20.355,12.285-40.925,18.662-61.451c7.069-22.767,17.206-44.477,26.862-66.47c9.488-21.637,15.535-42.533,22.974-64.925
	c1.457-4.389,2.838-8.814,4.234-13.227c14.205-44.94,25.267-91.04,33.814-137.485c-6.38-9.808-12.874-19.532-19.59-29.086h-0.102
	c-13.644-19.593-28.209-38.568-43.391-57.033c-9.795-11.88-19.888-23.51-30.234-34.899c-5.724,31.959-13.542,64.565-24.709,94.587
	c-2.716,7.298-5.557,14.495-8.689,21.427c-6.969,15.435-15.072,29.428-23.805,42.626c-18.292,27.644-39.42,51.717-59.259,77.564
	c-10.441,13.603-20.528,27.698-29.63,43.103c-37.317,62.606-62.677,132.847-96.482,196.744
	c-18.731,35.401-40.017,68.877-67.452,97.968c-39.515,41.237-85.049,66.699-131.219,90.811
	c-45.591,23.805-91.8,46.289-133.449,81.325c-26.731,22.314-48.728,50.762-75.747,72.584c-7.547,6.095-15.464,11.698-24.012,16.478
	c-9.744,5.422-19.96,9.588-30.457,12.954c-37.798,12.132-79.456,13.354-117.805,20.575c-32.828,6.275-68.901,11.415-102.972,18.85
	c-11.464,2.499-22.704,5.257-33.517,8.409c-41.854,12.19-72.431,40.463-113.532,53.813c-26.258,8.287-52.735,10.981-79.391,10.202
	c-31.927-0.935-64.107-6.865-96.484-14.329c-51.174-11.805-102.831-27.332-154.713-32.721c-1.442-0.151-2.884-0.326-4.328-0.458
	c-14.112-1.393-27.99-2.129-41.73-2.479c-15.535-0.405-30.889-0.307-46.165-0.063c-15.367,0.243-30.662,0.628-46.002,0.794
	c-21.647,0.229-43.391-0.004-65.557-1.71c4.612,15.376,9.54,30.597,14.919,45.631c10.36,29.028,22.056,57.442,35.183,85.135
	c7.9,16.823,16.31,33.339,25.235,49.544c8.904,16.482,18.378,32.672,28.363,48.555c9.539,2.49,18.957,4.789,28.177,6.85
	c26.548,6.227,52.938,12.059,79.228,17.135c34.782,6.719,69.391,12.068,103.953,15.259
	C479.201,1602.295,489.223,1603.084,499.242,1603.62z"/>
<path style="fill:#864996;" d="M1736.515,518.792c2.801,3.941,5.61,7.878,8.339,11.868c17.206,25.106,32.431,51.104,45.564,77.861
	c9.05,18.314,17.04,37.062,23.998,56.044c2.229,6.007,4.295,12.068,6.312,18.144c14.205-44.94,25.267-91.04,33.814-137.485
	c-6.38-9.808-12.874-19.532-19.59-29.086h-0.102c-13.642-19.593-28.209-38.568-43.391-57.033
	c-9.795-11.88-19.888-23.51-30.234-34.899C1755.499,456.164,1747.682,488.771,1736.515,518.792z"/>
<path style="fill:#864996;" d="M126.882,905.407v0.102c-2.699,16.248-4.941,32.633-6.782,49.125
	c15.613-1.34,31.311-2.612,47.069-3.786l0.039-0.356c2.806-23.05,6.604-45.788,11.318-68.248l0.005-0.088
	c8.417-40.789,19.849-80.501,33.712-119.22c0.504-1.422,1.048-2.826,1.559-4.244c-17.393,1.895-34.825,3.864-52.284,5.866
	c-0.351,1.072-0.748,2.119-1.097,3.192C145.856,812.267,134.575,858.221,126.882,905.407z"/>
<path style="fill:#864996;" d="M118.47,1150.355c1.491,16.482,3.474,32.819,5.835,49.004c17.725,2.358,35.257,3.893,52.545,4.609
	c-2.96-12.872-5.522-25.842-7.644-38.918c-3.54-22.056-5.774-44.463-7.084-67.059c-0.321-5.539-0.562-11.084-0.752-16.643
	c-15.501,0.726-31.13,1.267-46.889,1.617C114.898,1105.698,116.226,1128.129,118.47,1150.355z"/>
<path style="fill:#864996;" d="M293.066,1482.768c-10.658-17.92-20.687-36.263-30.27-54.932
	c-7.708-15.016-15.217-30.144-22.341-45.491c-7.315-15.615-14.219-31.415-20.779-47.376c-21.647,0.229-43.391-0.004-65.557-1.71
	c4.612,15.376,9.538,30.602,14.919,45.631c10.36,29.028,22.056,57.442,35.183,85.135c7.9,16.823,16.31,33.339,25.235,49.544
	c8.904,16.482,18.378,32.672,28.363,48.555c9.539,2.49,18.957,4.789,28.177,6.85c26.548,6.227,52.938,12.059,79.228,17.135
	c-2.092-2.529-4.253-5.023-6.302-7.571C334.574,1548.268,312.922,1516.151,293.066,1482.768z"/>
<path style="fill:#864996;" d="M1879.089,966.512c-4.577,8.351-9.259,16.512-14,24.575c0.246,10.236,0.397,20.521,0.358,30.967
	c-0.029,11.79-0.407,23.518-1.028,35.176c-1.147,21.569-3.267,42.996-6.246,64.214c2.543-2.441,5.069-4.838,7.644-7.342
	c57.215-56.453,85.956-113.213,110.172-174.62c4.616-10.943,10.646-25.462,17.089-41.798c-2.39-13.729-4.967-27.396-7.961-40.896
	c-6.563-30.056-14.565-59.391-24-88.214c-2.043-6.383-4.209-12.711-6.394-19.03C1943.559,817.695,1915.917,899.692,1879.089,966.512
	z"/>
<path style="fill:#864996;" d="M1997.461,1196.368c4.594-31.717,7.561-63.946,8.891-96.584c0.512-12.921,0.821-25.949,0.821-39.079
	c0-9.647-0.176-19.225-0.458-28.78c-1.089,1.895-2.134,3.83-3.237,5.715c-55.827,95.264-124.289,166.303-185.865,252.481
	c-0.702,0.979-1.428,1.915-2.134,2.884c-0.957,2.709-1.883,5.437-2.867,8.127c-7.666,20.891-16.411,41.223-25.961,61.082
	c-14.087,29.295-30.019,57.364-47.498,84.38l-0.007,0.087c-27.269,42.178-58.319,81.564-91.898,118.304l-0.007,0.088
	c-22.392,24.779-46.241,48.049-71.374,69.943c-7.459,19.44-25.961,44.404-37.069,57.32
	c-49.992,59.103-118.184,79.814-185.741,88.404c-5.732,2.811-11.457,5.637-17.235,8.356
	c-46.005,21.642-93.532,39.298-142.633,52.911c-4.553,3.732-9.22,7.61-14.18,11.819c-73.466,61.612-173.222,97.909-273.679,111.561
	c-37.118,5.096-74.241,5.286-111.474,3.61c6.558,1.915,13.14,3.771,19.759,5.544h0.102c54.163,14.69,110.358,24.482,167.97,29.243
	c12.904-3.971,25.805-8.453,38.784-13.574c55.128-22.056,107.775-26.066,161.948-48.911c47.966-20.443,86.697-48.287,135.58-68.809
	c77.705-32.696,158.878-65.587,234.783-103.147c85.308-41.676,179.553-97.471,243.302-179.658
	c52.251-67.844,56.512-125.193,80.329-196.257c16.818-50.655,47.88-108.564,83.703-151.502
	C1972.886,1226.599,1985.325,1211.495,1997.461,1196.368z"/>
<path style="fill:#864996;" d="M856.736,1881.49c18.383-3.781,37.003-5.905,55.671-7.372c-40.233-1.954-80.165-7.147-119.215-16.584
	h-0.097c-17.108-4.103-34.037-8.93-50.738-14.495c-29.445-9.807-56.869-21.773-83.13-35.323c-1.379-0.706-2.731-1.452-4.102-2.168
	c-9.364,0.974-18.94,1.607-29.065,1.179c-41.322-1.788-84.114-18.723-121.39-35.517c-39.939-18.163-77.296-31.824-114.421-42.514
	c17.993,18.012,36.633,35.366,56.049,51.878c22.007,18.904,44.923,36.677,68.621,53.378
	C627.039,1873.84,744.854,1904.247,856.736,1881.49z"/>
<path style="fill:#864996;" d="M1544.623,332.969c2.436,1.581,4.828,3.235,7.235,4.862c4.614-2.969,9.45-5.354,14.541-7.081
	c24.058-8.59,34.19,13.608,36.409,45.215c8.524,7.006,16.955,14.141,25.215,21.51c2.658,2.368,5.252,4.828,7.881,7.24
	c5.496-26.331,11.849-52.068,22.056-78.27c-2.621-2.136-5.204-4.322-7.849-6.431c-30.568-24.309-62.675-46.876-96.214-67.288
	c-52.974-32.443-109.4-59.681-168.552-81.244c-5.717,22.314-12.18,44.226-19.196,65.588c35.437,15.128,69.32,31.922,102.192,50.121
	C1494.37,301.566,1519.771,316.815,1544.623,332.969z"/>
<path style="fill:#864996;" d="M207.58,650.154c17.893,0.57,35.578,0.112,52.66-0.565c14.278-29.272,29.571-57.724,46.241-85.14
	c12.421-20.551,25.63-40.521,39.605-59.802l0.158-0.21c-3.439-0.7-6.865-1.279-10.256-1.574
	c-19.132-1.717-33.688,4.37-48.457,11.749c-6.555,9.277-12.987,18.66-19.201,28.195c-22.462,34.26-42.774,70.056-60.723,107.293
	L207.58,650.154z"/>
<path style="fill:#864996;" d="M1153.997,181.279c2.565,0.356,5.12,0.709,7.673,1.058c26.921,3.627,53.181,7.084,79.25,12.779
	c9.79,2.107,19.452,4.529,29.01,7.216c9.201,2.558,18.305,5.384,27.357,8.389c4.953-9.12,9.813-18.282,14.468-27.517
	c4.808-9.223,10.183-19.652,15.322-30.838c-36.039-10.631-72.974-19.242-110.652-25.396c-10.17-1.688-20.411-3.172-30.689-4.534
	c-5.711,7.411-11.9,13.995-18.875,19.191c-33.383,24.453-68.821-8.122-103.364-3.118c-16.57,2.565-37.123,13.408-49.371,31.457
	c2.256-0.025,4.478-0.073,6.741-0.093C1066.338,169.54,1110.348,175.223,1153.997,181.279z"/>
<path style="fill:#8B4E99;" d="M169.205,1165.05c2.122,13.077,4.684,26.046,7.644,38.918c7.746,0.322,15.45,0.507,23.096,0.521
	c3.751,0.005,7.476-0.058,11.201-0.122c-1.062-3.065-2.19-6.095-3.215-9.179c-3.338-9.978-6.485-20.049-9.418-30.241
	c-5.094-17.656-8.877-35.571-11.537-53.666c-1.498-10.3-2.592-20.672-3.352-31.094c-7.396,0.419-14.809,0.814-22.256,1.16
	c0.19,5.559,0.431,11.104,0.752,16.643C163.432,1120.587,165.666,1142.994,169.205,1165.05z"/>
<path style="fill:#8B4E99;" d="M1212.203,226.93c18.47,4.597,36.431,10.753,54.563,17.591c3.099,1.167,6.134,2.363,9.196,3.545
	c7.376-12.287,14.487-24.748,21.325-37.345c-9.052-3.006-18.155-5.832-27.357-8.389c-9.559-2.687-19.22-5.109-29.01-7.216
	c-26.068-5.695-52.329-9.152-79.25-12.779c-2.553-0.349-5.108-0.702-7.673-1.058c-43.649-6.056-87.659-11.739-133.13-11.405
	c-2.263,0.019-4.485,0.068-6.741,0.093c-6.095,8.979-10.127,19.725-10.541,32.185c24.017,1.04,47.513,4.136,70.925,7.303
	c8.823-3.698,17.983-5.466,23.14-5.245c7.627,0.546,15.449,4.478,22.161,10.67c22.183,1.998,43.756,3.069,65.439,6.519
	C1194.396,222.853,1203.361,224.702,1212.203,226.93z"/>
<path style="fill:#8B4E99;" d="M742.357,1843.039c16.701,5.564,33.629,10.392,50.738,14.495h0.097
	c39.05,9.437,78.982,14.631,119.215,16.584c76.049-5.963,152.911-0.755,217.994-49.856c37.237-27.61,77.052-88.268,86.538-136.764
	c-55.776,26.738-113.098,47.561-173.507,62.484c-3.944,35.854-46.265,70.777-89.87,81.383
	c-78.782,19.352-148.452-15.503-224.063-28.565c-27.04-4.789-49.96,0.195-74.375,2.748c1.371,0.716,2.723,1.461,4.102,2.168
	C685.488,1821.266,712.912,1833.231,742.357,1843.039z"/>
<path style="fill:#8B4E99;" d="M1647.241,1565.072l0.007-0.088c33.578-36.74,64.628-76.126,91.898-118.304l0.007-0.087
	c17.479-27.016,33.411-55.084,47.498-84.38c9.549-19.859,18.295-40.19,25.961-61.082c0.984-2.69,1.91-5.417,2.867-8.127
	c-46.743,64.234-102.648,110.187-160.398,157.427c-46.076,37.554-81.695,85.203-128.993,120.745
	c-38.877,29.618-96.794,64.604-136.667,48.068c-7.964-3.245-16.378-8.448-22.38-15.147c-23.269,14.606-47.045,28.536-71.098,41.958
	l-0.146,0.058c5.644,16.98,16.207,31.893,31.272,44.926c59.027,52.809,194.221,3.722,251.86-73.261
	c0.748,4.643-0.524,10.621-3.06,17.237C1601,1613.121,1624.849,1589.851,1647.241,1565.072z"/>
<path style="fill:#8B4E99;" d="M1602.808,375.965c1.294,18.404-0.092,39.965-3.013,60.57c4.324,4.373,8.619,8.785,12.799,13.328
	c3.927,4.278,7.783,8.631,11.594,13.03c4.224-19.97,7.763-39.235,11.717-58.177c-2.628-2.412-5.223-4.872-7.881-7.24
	C1619.763,390.106,1611.332,382.971,1602.808,375.965z"/>
<path style="fill:#8B4E99;" d="M1469.267,337.965c4.119,2.158,8.178,4.441,12.224,6.755c13.535,7.693,26.633,16.261,39.459,25.35
	c9.213-13.683,19.357-24.804,30.908-32.239c-2.407-1.627-4.799-3.281-7.235-4.862c-24.852-16.154-50.253-31.403-76.282-45.778
	c-32.872-18.199-66.755-34.993-102.192-50.121c-2.548,7.758-5.15,15.466-7.834,23.069c-2.309,6.606-4.773,13.121-7.218,19.642
	c15.51,7.077,30.757,14.314,45.88,21.678C1421.243,313.296,1445.232,325.378,1469.267,337.965z"/>
<path style="fill:#8B4E99;" d="M1407.886,1577.316c14.017,0.307,33.732-7.878,39.588-22.587c1.021-2.568,1.43-5.018,1.479-7.377
	c-2.146,1.647-4.232,3.362-6.392,4.989C1431.211,1560.916,1419.637,1569.228,1407.886,1577.316z"/>
<path style="fill:#8B4E99;" d="M1865.447,1022.054c0.039-10.445-0.112-20.73-0.358-30.967
	c-42.441,72.219-91.529,133.422-149.761,191.195c-2.48,7.781-5.018,15.527-7.681,23.167c-3.973,11.386-8.09,22.611-12.375,33.627
	c-5.625,14.407-11.949,28.424-18.806,42.119c61.827-55.079,116.867-97.612,181.707-159.751c2.979-21.218,5.098-42.645,6.246-64.214
	C1865.04,1045.572,1865.418,1033.844,1865.447,1022.054z"/>
<path style="fill:#8B4E99;" d="M1790.417,608.522c-13.133-26.758-28.358-52.755-45.564-77.861c-2.729-3.99-5.537-7.927-8.339-11.868
	c-2.716,7.298-5.559,14.495-8.689,21.427c-6.969,15.435-15.072,29.428-23.805,42.626c1.082,2.304,2.259,4.579,3.296,6.894
	c8.012,17.851,14.56,36.083,19.827,54.446c7.832,27.308,12.626,55.103,14.981,83.02c0.738,8.755,1.42,17.505,1.647,26.28
	c0.424,16.521,0.994,33.013,1.466,49.642c0.524,18.383,0.987,36.877,1.676,55.629c0.36,9.905,0.726,19.927,1.079,30.026
	c6.421-20.355,12.285-40.925,18.662-61.451c7.069-22.767,17.206-44.477,26.862-66.47c9.488-21.637,15.535-42.533,22.974-64.925
	c1.457-4.389,2.838-8.814,4.234-13.227c-2.017-6.076-4.083-12.136-6.312-18.144C1807.457,645.584,1799.467,626.836,1790.417,608.522
	z"/>
<path style="fill:#8B4E99;" d="M306.481,564.449c-16.67,27.415-31.963,55.868-46.241,85.14c9.145-0.365,18.122-0.789,26.848-1.164
	c12.153-25.588,24.616-50.641,38-74.923c10.26-18.718,21.094-36.984,32.667-54.675c2.105-3.196,4.29-6.333,6.456-9.488
	c-6.034-2-12.03-3.693-17.966-4.901l-0.158,0.21C332.111,523.928,318.902,543.898,306.481,564.449z"/>
<path style="fill:#8B4E99;" d="M178.53,882.157l-0.005,0.088c-4.714,22.46-8.511,45.199-11.318,68.248l-0.039,0.356
	c7.176-0.531,14.365-1.043,21.564-1.53c1.388-11.308,2.982-22.518,4.938-33.622c3.559-20.234,8.012-40.136,13.242-59.785l0.01-0.078
	c8.935-34.081,20.241-67.269,33.055-99.926c-8.714,0.906-17.44,1.836-26.175,2.786c-0.511,1.418-1.055,2.821-1.559,4.244
	C198.379,801.656,186.947,841.368,178.53,882.157z"/>
<path style="fill:#8B4E99;" d="M1353.058,1780.74c-4.497,0.575-8.989,1.092-13.474,1.564
	c-70.475,6.904-98.964,20.838-146.394,59.703c49.101-13.613,96.628-31.269,142.633-52.911
	C1341.601,1786.377,1347.326,1783.551,1353.058,1780.74z"/>
<path style="fill:#8B4E99;" d="M386.685,1532.609c-10.073-11.376-19.423-22.933-28.236-34.733
	c-21.527-28.872-39.834-59.396-56.794-91.059c-9.072-16.931-17.681-34.226-26.082-51.829c-3.311-6.938-6.616-13.87-9.895-20.813
	c-15.367,0.243-30.662,0.628-46.002,0.794c6.56,15.961,13.464,31.761,20.779,47.376c7.123,15.347,14.633,30.475,22.341,45.491
	c9.583,18.67,19.613,37.013,30.27,54.932c19.856,33.384,41.508,65.5,65.856,95.771c2.049,2.548,4.21,5.043,6.302,7.571
	c34.782,6.719,69.391,12.068,103.953,15.259c-6.803-4.478-13.544-9.023-20.18-13.744
	C426.855,1572.01,405.828,1554.665,386.685,1532.609z"/>
<path style="fill:#92559D;" d="M1217.292,1651.508c-10.139-39.542-55.861-61.539-107.768-67.429
	c-53.807,28.789-108.599,52.311-168.511,70.104c-4.204,1.247-8.441,2.466-12.697,3.654c-8.65,19.089-10.514,39.703-1.452,58.017
	c8.816,17.866,41.503,37.651,61.086,26.124c-28.255,2.538-39.999-33.978-18.401-46.032c24.212-13.681,56.18,6.631,66.333,22.514
	c6.552,10.183,8.718,20.896,7.549,31.523c60.409-14.923,117.732-35.747,173.507-62.484
	C1219.521,1674.299,1219.872,1661.993,1217.292,1651.508z"/>
<path style="fill:#92559D;" d="M206.913,855.911c-5.23,19.649-9.683,39.551-13.242,59.785c-1.956,11.104-3.55,22.314-4.938,33.622
	c6.224-0.424,12.456-0.828,18.697-1.213c0.816-5.462,1.79-10.889,2.665-16.321c2.794-17.325,5.919-34.266,10.036-50.884
	c4.312-17.413,9.423-34.485,15.169-51.323l0.015-0.063c8.711-25.866,18.957-51.108,29.924-76.17
	c-8.407,0.828-16.828,1.686-25.262,2.563c-12.813,32.657-24.119,65.846-33.055,99.926L206.913,855.911z"/>
<path style="fill:#92559D;" d="M1599.795,436.535c-3.532,24.916-9.274,48.316-15.174,62.857
	c8.107,11.34,15.406,22.875,21.902,34.572c6.163-20.74,11.316-42.109,16.141-63.946c0.524-2.39,1.023-4.757,1.523-7.125
	c-3.81-4.399-7.666-8.753-11.594-13.03C1608.413,445.319,1604.119,440.907,1599.795,436.535z"/>
<path style="fill:#92559D;" d="M1707.648,1205.449c2.663-7.64,5.201-15.386,7.681-23.167
	c-23.505,23.323-48.458,46.109-75.118,68.823c-55.442,46.835-105.271,90.007-156.192,132.403
	c-21.489,18.222-66.714,42.1-69.274,60.141c66.482,8.044,203.103-105.71,248.681-150.737c4.385-3.975,8.728-7.878,13.04-11.717
	c6.857-13.695,13.182-27.712,18.806-42.119C1699.558,1228.06,1703.675,1216.835,1707.648,1205.449z"/>
<path style="fill:#92559D;" d="M442.911,1501.101c-21.53-13.486-41.934-28.964-60.009-51.015
	c-9.065-10.772-17.298-21.715-24.923-32.872c-18.005-26.441-32.533-54.241-46.137-82.976c-15.535-0.405-30.886-0.312-46.165-0.063
	c3.279,6.943,6.585,13.875,9.895,20.813c8.402,17.603,17.011,34.899,26.082,51.829c16.96,31.664,35.267,62.187,56.794,91.059
	c8.814,11.8,18.163,23.357,28.236,34.733c19.142,22.056,40.17,39.4,62.311,55.015c6.636,4.721,13.377,9.267,20.18,13.744
	c10.024,0.925,20.046,1.715,30.068,2.251c30.87,1.632,61.237,0.76,91.359-1.208c-19.761-15.542-39.113-32.068-60.779-48.063
	C500.979,1533.052,471.009,1518.821,442.911,1501.101z"/>
<path style="fill:#92559D;" d="M1405.537,347.858c22.548,9.939,43.98,22.713,64.711,37.025c10.27,7.089,20.319,14.726,30.117,22.799
	c4.914-10.536,10.012-20.439,15.347-29.422c1.713-2.824,3.46-5.55,5.238-8.19c-12.826-9.089-25.924-17.657-39.459-25.35
	c-4.046-2.314-8.105-4.597-12.224-6.755c-24.034-12.587-48.024-24.67-72.289-36.507c-15.123-7.364-30.37-14.601-45.88-21.678
	c-5.045,13.452-10.356,26.733-15.978,39.8c19.369,7.915,38.806,15.65,58.789,23.383
	C1397.827,344.481,1401.683,346.16,1405.537,347.858z"/>
<path style="fill:#92559D;" d="M1367.041,1604.098c-9.223-10.295-12.699-24.146,0.319-40.097c25.617-32.01,61.732-6.047,31.9,11.693
	c2.4,1.018,5.359,1.55,8.626,1.622c11.752-8.088,23.325-16.399,34.675-24.975c2.161-1.627,4.246-3.342,6.392-4.989
	c0.414-19.395-29.116-31.595-43.586-34.504c-48.552-9.184-94.922,19.557-108.788,67.055c-7.24,24.999-7.189,46.938-0.782,66.211
	l0.146-0.058C1319.996,1632.633,1343.771,1618.704,1367.041,1604.098z"/>
<path style="fill:#92559D;" d="M1204.73,267.069c16.463,6.12,32.217,12.295,47.542,18.465c8.163-12.26,16.066-24.762,23.69-37.468
	c-3.062-1.182-6.097-2.378-9.196-3.545c-18.132-6.838-36.093-12.994-54.563-17.591c-8.843-2.229-17.807-4.077-26.952-5.532
	c-21.683-3.449-43.257-4.521-65.439-6.519c8.777,8.102,15.61,20.112,17.486,33.751c5.803,0.758,11.545,1.669,17.177,2.897
	C1171.483,255.184,1187.887,260.799,1204.73,267.069z"/>
<path style="fill:#92559D;" d="M325.087,573.501c-13.383,24.282-25.846,49.335-38,74.923c9.164-0.39,18.046-0.711,26.604-0.838
	c10.017-22.021,19.778-43.815,30.002-65.027c8.1-16.897,16.56-33.457,25.727-49.554c3.481-6.061,7.14-12.01,10.879-17.915
	c-5.379-2.007-10.748-3.978-16.09-5.751c-2.166,3.155-4.351,6.292-6.456,9.488C346.181,536.517,335.348,554.783,325.087,573.501z"/>
<path style="fill:#92559D;" d="M198.513,1164.947c2.933,10.193,6.08,20.263,9.418,30.241c1.025,3.084,2.153,6.114,3.215,9.179
	c13.99-0.238,27.795-0.974,41.413-2.153c-3.788-8.575-7.569-17.15-11.201-25.803c-5.774-13.73-11.311-27.566-16.417-41.681
	c-3.318-9.13-6.467-18.358-9.405-27.717c-2.95-9.369-5.306-18.826-7.233-28.341c-8.2,0.541-16.424,1.052-24.68,1.515
	c0.76,10.421,1.854,20.794,3.352,31.094C189.636,1129.377,193.419,1147.291,198.513,1164.947z"/>
<path style="fill:#92559D;" d="M1004.847,217.817c1.494,7.588,4.616,15.084,8.751,22.046c13.437,2.039,26.85,4.088,40.404,5.447
	c-0.624-1.189-1.208-2.507-1.698-4.141c-4.609-15.357,8.38-25.922,22.207-31.715c-23.412-3.167-46.908-6.263-70.925-7.303
	C1003.42,207.116,1003.771,212.324,1004.847,217.817z"/>
<path style="fill:#92559D;" d="M1745.238,803.127c-0.472-16.628-1.042-33.121-1.466-49.642c-0.227-8.775-0.909-17.525-1.647-26.28
	c-2.355-27.917-7.15-55.712-14.981-83.02c-5.267-18.363-11.815-36.594-19.827-54.446c-1.038-2.314-2.214-4.589-3.296-6.894
	c-18.292,27.644-39.42,51.717-59.259,77.564c1.035,14.251,1.12,28.531,0.304,42.781c-0.47,8.2-1.023,16.4-2.104,24.56
	c-2.066,15.571-3.586,30.952-4.911,46.367c-1.503,17.472-2.665,34.894-3.182,52.633c-0.48,16.278-0.592,32.882-0.607,49.949
	c6.241-1.462,12.244-1.661,17.686-0.054c25.457,7.479,16.297,50.197,5.016,79.098c-7.279,19.133-17.276,41.257-29.7,60.814
	c-1.868,10.602-4.012,21.184-6.48,31.693c-2.65,11.279-5.7,22.441-8.908,33.535c44.653-21.9,86.467-73.524,110.012-124.082
	c10.609-22.402,18.728-45.52,26.107-68.921c-0.353-10.1-0.719-20.122-1.079-30.026
	C1746.225,840.004,1745.762,821.51,1745.238,803.127z"/>
<path style="fill:#965BA1;" d="M224.942,1134.731c5.106,14.114,10.643,27.951,16.417,41.681c3.632,8.653,7.413,17.228,11.201,25.803
	c2.504-0.214,5.023-0.4,7.515-0.648c12.185-1.247,24.056-3.104,35.708-5.384c-3.357-8.107-6.782-16.156-10.312-24.117
	c-8.997-20.19-18.385-39.995-27.389-60.029c-5.313-11.805-10.47-23.703-15.323-35.815c-11.439,0.872-22.923,1.695-34.455,2.451
	c1.927,9.515,4.283,18.972,7.233,28.341C218.474,1116.373,221.624,1125.6,224.942,1134.731z"/>
<path style="fill:#965BA1;" d="M1058.577,274.54c2.979-0.234,5.971-0.392,8.972-0.487c8.385-1.642,17.332-6.645,11.152-17.654
	c-4.933-8.736-18.163,1.364-24.699-11.089c-13.554-1.359-26.967-3.408-40.404-5.447
	C1024.614,258.416,1043.02,273.015,1058.577,274.54z"/>
<path style="fill:#965BA1;" d="M1582.267,504.751c-10.709,23.644-22.833,44.243-36.326,63.225
	c3.179,11.766,5.423,23.606,6.662,35.454c1.53,14.64,1.53,29.296,0.241,43.902c2.107-2.889,4.192-5.798,6.231-8.765
	c21.954-32.024,36.355-67.274,47.447-104.604c-6.497-11.698-13.795-23.232-21.902-34.572
	C1583.836,501.323,1583.052,503.151,1582.267,504.751z"/>
<path style="fill:#965BA1;" d="M1391.362,378.586c22.255,12.964,43.478,28.82,62.787,47.249
	c9.371,8.967,18.304,18.485,26.823,28.348c6.207-16.248,12.624-31.985,19.393-46.502c-9.797-8.073-19.846-15.71-30.117-22.799
	c-20.731-14.312-42.163-27.086-64.711-37.025c-3.854-1.698-7.71-3.377-11.63-4.894c-19.983-7.734-39.42-15.468-58.789-23.383
	c-4.254,9.888-8.692,19.64-13.267,29.288c2.584,0.685,5.172,1.365,7.732,2.127C1351.106,357.41,1371.599,367.073,1391.362,378.586z"
	/>
<path style="fill:#965BA1;" d="M235.3,829.578c-5.746,16.838-10.858,33.909-15.169,51.323c-4.117,16.618-7.243,33.559-10.036,50.884
	c-0.875,5.432-1.849,10.86-2.665,16.321c5.215-0.322,10.434-0.634,15.656-0.926c1.596-14.499,4.126-28.935,7.44-43.191
	c1.145-4.979,2.475-9.905,3.683-14.84c3.607-14.738,7.537-29.081,12.382-43.045c5.062-14.597,10.833-28.833,17.098-42.86
	l0.019-0.053c7.783-17.608,16.354-34.865,25.179-52.102c-7.871,0.726-15.754,1.481-23.649,2.256
	c-10.967,25.062-21.213,50.304-29.924,76.17L235.3,829.578z"/>
<path style="fill:#965BA1;" d="M1227.461,320.918c8.511-11.52,16.784-23.328,24.811-35.384
	c-15.325-6.17-31.079-12.346-47.542-18.465c-16.843-6.27-33.247-11.885-50.255-15.542c-5.632-1.228-11.374-2.139-17.177-2.897
	c0.185,1.35,0.348,2.706,0.433,4.083c0.75,12.139-3.057,22.867-9.04,31.971c4.631,1.566,9.281,3.201,14.005,4.933
	C1173.261,300.808,1200.559,311.42,1227.461,320.918z"/>
<path style="fill:#965BA1;" d="M1627.264,1016.559c-15.805,24.872-35.542,45.578-58.64,50.621
	c-49.657,10.397-13.815-73.33,17.608-90.329c-15.087-0.814-40.339,34.153-48.763,50.406c-21.159,41.154,4.475,67.469,36.729,65.242
	c12.555-0.814,25.227-4.609,37.678-10.714c3.208-11.094,6.258-22.255,8.908-33.535
	C1623.251,1037.742,1625.395,1027.16,1627.264,1016.559z"/>
<path style="fill:#965BA1;" d="M1435.859,1158.36c-13.596,19.878-29.284,38.265-46.16,55.532l-0.029,0.053
	c-26.372,26.977-55.586,51.181-83.821,74.085l-0.029,0.049c-23.639,19.81-49.137,37.047-75.471,53.325
	c-37.795,23.371-77.244,44.657-114.847,68.77l-0.173,0.092c-10.78,6.909-21.408,14.042-31.807,21.52
	c-60.402,43.41-116.005,82.84-181.992,113.349c-56.09,25.929-120.465,45.271-185.619,36.327h-0.083
	c-14.818-2.052-29.593-5.384-44.192-10.134c-27.31-8.872-48.714-21.749-67.885-36.614c-28.536-22.222-52.003-48.925-83.169-73.144
	c-27.267-21.057-56.448-32.092-83.756-46.996c-20.913-11.357-40.697-24.964-57.702-47.011c-7.9-9.968-14.884-20.087-21.221-30.387
	c-1.442-0.151-2.884-0.326-4.328-0.458c-14.112-1.393-27.99-2.129-41.73-2.479c13.603,28.735,28.132,56.536,46.137,82.976
	c7.625,11.157,15.858,22.1,24.923,32.872c18.075,22.051,38.48,37.529,60.009,51.015c28.097,17.72,58.068,31.951,86.913,53.247
	c21.666,15.995,41.018,32.521,60.779,48.063c49.956-3.259,99.227-9.525,148.961-12.351c135.178-7.98,255.37-43.839,372.656-103.707
	c48.728-25.047,89.695-61.939,135.57-92.55c46.178-30.816,94.161-61.281,135.885-99.254c14.628-13.296,30.182-25.676,44.421-39.347
	c14.134-13.589,28.572-17.968,45.042-25.14c18.952-8.258,38.502-17.729,56.533-29.598c22.838-14.914,51.016-38.553,64.087-65.403
	c-33.561,31.361-71.32,53.13-106.523,39.625c-25.257-9.949-29.795-35.629-24.809-63.824c-0.611,1.359-1.223,2.753-1.834,4.098
	C1453.644,1130.244,1445.242,1144.641,1435.859,1158.36z"/>
<path style="fill:#965BA1;" d="M1638.05,774.119c1.325-15.415,2.845-30.796,4.911-46.367c1.082-8.161,1.634-16.361,2.104-24.56
	c0.816-14.251,0.731-28.531-0.304-42.781c-10.441,13.603-20.528,27.698-29.63,43.103c-37.32,62.602-62.677,132.847-96.482,196.744
	c-0.046,2.962-0.083,5.842-0.134,8.862c-0.122,8.794-0.726,17.652-1.713,26.534c-2.341,21.525-6.93,43.24-12.962,64.667
	c-3.167,11.43-6.826,22.728-10.677,33.929c24.501-42.704,55.525-91.61,89.1-124.672c14.419-13.998,34.19-28.692,51.997-32.877
	c0.015-17.067,0.127-33.671,0.607-49.949C1635.385,809.013,1636.547,791.59,1638.05,774.119z"/>
<path style="fill:#965BA1;" d="M343.694,582.558c-10.224,21.213-19.985,43.006-30.002,65.027c0.897-0.01,1.81-0.034,2.699-0.043
	c7.69,0.015,15.41,0.307,23.145,0.784c8.114-19.06,15.371-38.041,22.762-56.716c5.941-15.069,12.026-29.924,18.792-44.429
	c4.266-9.072,8.933-17.934,13.905-26.699c-4.897-1.735-9.798-3.567-14.694-5.394c-3.739,5.905-7.398,11.854-10.879,17.915
	C360.254,549.102,351.794,565.662,343.694,582.558z"/>
<path style="fill:#965BA1;" d="M1109.524,1584.078c-51.712-5.866-109.561,4.253-144.489,28.96
	c-15.842,11.863-28.987,27.727-36.719,44.799c4.256-1.189,8.492-2.407,12.697-3.654
	C1000.925,1636.389,1055.717,1612.867,1109.524,1584.078z"/>
<path style="fill:#9E63A5;" d="M1059.188,274.631c2.156,0.195,5.22,0.036,8.361-0.578c-3.001,0.095-5.993,0.254-8.972,0.487
	L1059.188,274.631z"/>
<path style="fill:#9E63A5;" d="M1552.604,603.43c-1.24-11.849-3.483-23.688-6.662-35.454
	c-12.633,17.773-26.465,34.129-41.554,50.129c-27.045,28.564-44.726,66.82-72.528,94.543c-2.887,2.943-6.327,6.041-10.115,9.057
	c-4.728,13.685-8.389,27.211-10.962,41.042c-1.118,5.998-2.036,12.073-2.841,18.212c6.288-3.863,12.538-8.073,18.738-12.75
	c44.226-33.671,89.987-71.303,126.165-120.876C1554.134,632.726,1554.134,618.071,1552.604,603.43z"/>
<path style="fill:#9E63A5;" d="M1374.928,413.824c13.82,12.268,26.685,25.851,38.412,40.163l0.058,0.048
	c3.52,4.293,6.945,8.648,10.263,13.052c14.192,18.787,24.648,38.163,31.583,57.815c8.414-23.262,16.857-47.503,25.727-70.718
	c-8.519-9.863-17.452-19.381-26.823-28.348c-19.308-18.429-40.531-34.285-62.787-47.249c-19.763-11.513-40.256-21.176-61.778-27.591
	c-2.56-0.762-5.148-1.442-7.732-2.127c-3.615,7.62-7.296,15.182-11.106,22.643c0.575,0.263,1.155,0.509,1.727,0.78
	C1334.785,382.762,1355.837,396.903,1374.928,413.824z"/>
<path style="fill:#9E63A5;" d="M263.689,803.244c-6.265,14.027-12.037,28.263-17.098,42.86
	c-4.845,13.963-8.775,28.307-12.382,43.045c-1.208,4.935-2.538,9.861-3.683,14.84c-3.313,14.256-5.844,28.692-7.44,43.191
	c5.674-0.317,11.35-0.619,17.03-0.901c-0.877-14.777,0.156-29.627,2.704-44.331c2.434-14.28,6.224-28.409,10.824-42.206
	c1.481-4.453,3.118-8.838,4.682-13.233c4.331-12.17,9.133-23.902,14.726-35.206c5.791-11.791,12.243-23.176,19.026-34.392
	l0.025-0.044c5.578-9.281,11.403-18.436,17.281-27.59c-6.821,0.584-13.651,1.184-20.494,1.812
	c-8.826,17.237-17.396,34.495-25.179,52.102L263.689,803.244z"/>
<path style="fill:#9E63A5;" d="M1516.803,935.653c0.987-8.882,1.591-17.739,1.713-26.534c0.051-3.021,0.088-5.9,0.134-8.862
	c-18.731,35.401-40.017,68.877-67.452,97.968c-39.515,41.237-85.049,66.699-131.219,90.811c-0.358,0.453-0.689,0.921-1.052,1.374
	c-13.382,16.775-29.036,31.902-45.712,45.919l-0.039,0.039c-26.073,21.91-54.672,41.052-81.127,59.347l-0.039,0.039
	c-21.405,15.22-44.416,27.927-67.768,40.181c-4.478,2.348-8.965,4.682-13.457,7.011c-7.547,6.095-15.464,11.698-24.012,16.478
	c-9.744,5.422-19.96,9.588-30.457,12.954c-10.597,6.217-21.004,12.74-31.033,19.854l-0.144,0.093
	c-8.879,6.305-17.484,13.042-25.717,20.36c-47.82,42.489-86.343,87.698-137.378,123.405
	c-48.886,34.207-109.602,59.337-171.894,53.349h-0.078c-14.056-1.37-28.112-4.205-42.009-8.682
	c-26.599-8.56-45.995-21.739-62.804-37.047c-24.826-22.684-43.966-50.036-72.642-73.812
	c-51.174-11.805-102.831-27.327-154.713-32.721c6.337,10.3,13.321,20.419,21.221,30.387c17.006,22.047,36.789,35.654,57.702,47.011
	c27.308,14.904,56.489,25.939,83.756,46.996c31.166,24.219,54.633,50.923,83.169,73.144c19.171,14.865,40.575,27.742,67.885,36.614
	c14.599,4.751,29.374,8.083,44.192,10.134h0.083c65.155,8.945,129.529-10.397,185.619-36.327
	c65.987-30.509,121.59-69.938,181.992-113.349c10.4-7.479,21.028-14.611,31.807-21.52l0.173-0.092
	c37.603-24.112,77.052-45.399,114.847-68.77c26.333-16.278,51.832-33.515,75.471-53.325l0.029-0.049
	c28.236-22.904,57.449-47.108,83.821-74.085l0.029-0.053c16.877-17.267,32.565-35.654,46.16-55.532
	c9.384-13.72,17.786-28.117,24.735-43.4c0.612-1.345,1.223-2.738,1.834-4.098c3.993-22.587,14.088-46.781,24.587-65.812
	c1.995-3.542,4.056-7.157,6.149-10.801c3.851-11.201,7.51-22.499,10.677-33.929C1509.873,978.893,1514.463,957.177,1516.803,935.653
	z"/>
<path style="fill:#9E63A5;" d="M1401.175,892.959c24.35-23.932,47.736-51.001,70.776-81.885
	c-20.419,17.071-41.327,37.203-65.028,49.364c-1.276,0.653-2.558,1.203-3.834,1.827c-0.071,3.074-0.146,6.056-0.215,9.208
	C1402.734,878.557,1402.11,885.733,1401.175,892.959z"/>
<path style="fill:#9E63A5;" d="M285.47,1172.066c3.53,7.961,6.955,16.01,10.312,24.117c11.703-2.285,23.174-5.023,34.489-8.054
	c-0.957-3.04-1.907-6.09-2.855-9.154c-4.356-13.954-8.641-28.146-13.513-42.533c-4.017-11.844-8.568-23.274-13.43-34.47
	c-4.315-9.92-8.877-19.639-13.523-29.301c-14.677,1.233-29.403,2.427-44.192,3.552c4.853,12.112,10.01,24.01,15.323,35.815
	C267.085,1132.071,276.474,1151.876,285.47,1172.066z"/>
<path style="fill:#9E63A5;" d="M362.298,591.61c-7.391,18.675-14.648,37.657-22.762,56.716c8.375,0.511,16.775,1.267,25.191,2.207
	c6.455-16.565,11.427-33.277,16.178-49.871c3.781-13.238,7.49-26.392,11.851-39.303c4.246-12.477,9.325-24.643,15.357-36.609
	c-4.36-1.271-8.736-2.714-13.118-4.268c-4.972,8.765-9.639,17.627-13.905,26.699C374.325,561.686,368.24,576.541,362.298,591.61z"/>
<path style="fill:#9E63A5;" d="M1206.101,348.616c7.276-9.006,14.385-18.263,21.359-27.698c-26.901-9.498-54.2-20.11-84.765-31.301
	c-4.724-1.732-9.374-3.367-14.005-4.933c-8.468,12.884-21.325,22.492-32.097,28.024c-2.21,1.152-4.478,2.014-6.77,2.745
	c33.807,12.126,62.652,22.126,93.054,28.806C1190.469,345.951,1198.213,347.358,1206.101,348.616z"/>
<path style="fill:#A269A9;" d="M585.256,1443.708c16.809,15.308,36.205,28.487,62.804,37.047
	c13.897,4.478,27.953,7.313,42.009,8.682h0.078c62.292,5.987,123.008-19.143,171.894-53.349
	c51.035-35.707,89.559-80.916,137.378-123.405c8.233-7.318,16.838-14.056,25.717-20.36l0.144-0.093
	c10.029-7.113,20.436-13.637,31.033-19.854c-37.798,12.132-79.456,13.354-117.805,20.575c-32.828,6.275-68.901,11.415-102.972,18.85
	c-4.112,5.218-8.414,10.314-12.981,15.24c-49.31,53.159-125.851,86.163-198.07,63.147c-5.505-1.754-10.599-3.766-15.389-5.963
	c-31.927-0.935-64.107-6.865-96.484-14.329C541.291,1393.672,560.431,1421.024,585.256,1443.708z"/>
<path style="fill:#A269A9;" d="M313.904,1136.441c4.872,14.387,9.157,28.58,13.513,42.533c0.947,3.064,1.898,6.114,2.855,9.154
	c9.588-2.563,19.057-5.349,28.468-8.248c-16.643-35.162-20.482-72.268-30.585-110.733c-13.707,1.179-27.437,2.363-41.203,3.522
	c4.646,9.662,9.208,19.381,13.523,29.301C305.336,1113.167,309.887,1124.597,313.904,1136.441z"/>
<path style="fill:#A269A9;" d="M380.905,600.663c-4.751,16.594-9.723,33.305-16.178,49.871c8.324,0.935,16.662,2.036,25.011,3.274
	c13.235-37.608,9.569-78.143,24.636-115.04c1.566-3.83,3.313-7.542,5.169-11.176c-3.793-0.755-7.605-1.725-11.43-2.841
	c-6.032,11.966-11.111,24.132-15.357,36.609C388.395,574.271,384.685,587.425,380.905,600.663z"/>
<path style="fill:#A269A9;" d="M1167.833,357.958c10.373-1.074,20.531-0.962,30.47,0.085c2.609-3.126,5.225-6.241,7.798-9.427
	c-7.888-1.257-15.632-2.665-23.223-4.356c-30.402-6.68-59.247-16.68-93.054-28.806c-20.875,6.643-44.757-2.336-63.72,5.842
	c-7.218,3.062-10.061,7.098-12.429,11.698c1.639,0.565,3.271,1.128,4.948,1.717C1073.554,354.06,1109.924,363.95,1167.833,357.958z"
	/>
<path style="fill:#A269A9;" d="M1343.365,451.195c50.414,64.894,45.028,137.181-2.836,199.368
	c-44.468,57.768-50.728,103.624-52.984,173.012c40.947-9.252,81.464-18.709,120.396-42.616c0.804-6.138,1.723-12.214,2.841-18.212
	c2.572-13.831,6.234-27.357,10.962-41.042c-20.385,16.219-50.808,29.837-58.884,1.291c-9.198-32.463,29.425-72.078,45.257-94.796
	c17.172-23.454,32.112-61.783,47.128-103.298c-6.936-19.651-17.391-39.028-31.583-57.815c-3.318-4.404-6.743-8.76-10.263-13.052
	l-0.058-0.048c-11.727-14.312-24.592-27.895-38.412-40.163c-19.091-16.921-40.143-31.062-62.455-41.532
	c-0.573-0.27-1.152-0.517-1.727-0.78c-5.123,10.029-10.455,19.876-15.924,29.6C1312.917,415.753,1329.226,432.995,1343.365,451.195z
	"/>
<path style="fill:#A269A9;" d="M1208.985,1014.663c0.797-0.297,1.589-0.565,2.383-0.863
	c73.488-28.151,134.189-66.192,189.807-120.842c0.935-7.226,1.559-14.402,1.7-21.486c0.068-3.152,0.144-6.134,0.215-9.208
	c-42.96,21.028-86.47,27.99-130.056,34.319c-12.719,33.501-31.656,66.704-47.118,94.265
	C1221.139,999.365,1215.375,1007.233,1208.985,1014.663z"/>
<path style="fill:#A269A9;" d="M1192.009,1195.753l0.039-0.039c26.455-18.295,55.055-37.437,81.127-59.347l0.039-0.039
	c16.677-14.017,32.331-29.145,45.712-45.919c0.363-0.453,0.694-0.921,1.052-1.374c-45.591,23.805-91.8,46.289-133.449,81.325
	c-26.731,22.314-48.728,50.762-75.747,72.584c4.492-2.329,8.979-4.662,13.457-7.011
	C1147.593,1223.68,1170.603,1210.974,1192.009,1195.753z"/>
<path style="fill:#A269A9;" d="M292.077,776.91c-6.782,11.216-13.235,22.602-19.026,34.392
	c-5.593,11.303-10.395,23.035-14.726,35.206c-1.564,4.395-3.201,8.78-4.682,13.233c-4.599,13.798-8.39,27.926-10.824,42.206
	c-2.548,14.704-3.581,29.554-2.704,44.331c10.592-0.526,21.194-0.989,31.798-1.369c-1.818-3.859-3.606-7.747-5.311-11.707
	c-18.55-43.04-4.73-89.252,15.837-129.33c10.604-20.667,25.023-38.436,40.122-55.673c-4.389,0.356-8.779,0.702-13.179,1.077
	c-5.878,9.154-11.703,18.309-17.281,27.59L292.077,776.91z"/>
</svg>
